<svg width="24" height="24" viewBox="0 0 24 24" fill="none" xmlns="http://www.w3.org/2000/svg">
<path fill-rule="evenodd" clip-rule="evenodd" d="M12.5315 3.00206C12.2284 2.73263 11.7716 2.73263 11.4685 3.00206L1.00002 12C0.669798 12.2935 0.640053 12.7992 0.933587 13.1294C1.22712 13.4596 1.73278 13.4894 2.06301 13.1959L4.00003 11.534V19.8C4.00003 20.9046 4.89546 21.8 6.00003 21.8H9.60003C10.0419 21.8 10.4 21.4418 10.4 21V16.4H13.6V21C13.6 21.4418 13.9582 21.8 14.4 21.8H18C19.1046 21.8 20 20.9046 20 19.8V11.534L21.937 13.1959C22.2672 13.4894 22.7729 13.4596 23.0664 13.1294C23.36 12.7992 23.3302 12.2935 23 12L12.5315 3.00206ZM18.4452 10.2L12 4.67035L5.55484 10.2H5.60003V19.8C5.60003 20.0209 5.77911 20.2 6.00003 20.2H8.80003V15.6C8.80003 15.1582 9.1582 14.8 9.60003 14.8H14.4C14.8419 14.8 15.2 15.1582 15.2 15.6V20.2H18C18.2209 20.2 18.4 20.0209 18.4 19.8V10.2H18.4452Z" fill="#8A8884" fill-opacity="0.56"/>
</svg>
